<?xml version="1.0" encoding="utf-8"?>
<!-- Generator: Adobe Illustrator 26.0.1, SVG Export Plug-In . SVG Version: 6.00 Build 0)  -->
<svg version="1.1" id="Layer_1" xmlns="http://www.w3.org/2000/svg" xmlns:xlink="http://www.w3.org/1999/xlink" x="0px" y="0px"
	 viewBox="0 0 1080 1080" style="enable-background:new 0 0 1080 1080;" xml:space="preserve">
<style type="text/css">
	.st0{fill:#F5F5F5;}
	.st1{fill:#E0E0E0;}
	.st2{fill:none;stroke:#FEFFFF;stroke-miterlimit:10;}
	.st3{fill:#E5BB52;}
	.st4{fill:#263238;}
	.st5{fill:#96CAED;}
	.st6{fill:#67CAD9;}
	.st7{opacity:0.5;}
	.st8{fill:#2D5156;}
	.st9{fill:#F7A7A8;}
	.st10{fill:#0D2028;}
	.st11{fill:#84464E;}
	.st12{opacity:0.2;}
	.st13{fill:#455B64;}
	.st14{fill:#466352;}
	.st15{fill:#F3908F;}
	.st16{fill:#E7515B;}
	.st17{opacity:0.3;fill:#E9EB86;}
	.st18{fill:#F1F0F0;}
	.st19{fill:#FAFBFB;}
	.st20{fill:#FFFFFF;}
	.st21{fill:#EBEBEB;}
</style>
<g>
	<g>
		
			<rect x="409.6" y="501.27" transform="matrix(0.8312 -0.556 0.556 0.8312 -253.4123 366.6309)" class="st0" width="134.99" height="198.77"/>
	</g>
	<g>
		<g>
			<polygon class="st1" points="530.48,637.91 529.21,645.79 473.43,637.75 474.7,629.87 			"/>
		</g>
		<g>
			<polygon class="st1" points="502.39,609.79 510.4,610.95 501.52,665.86 493.52,664.71 			"/>
		</g>
	</g>
	<g>
		<g>
			<path class="st2" d="M486.53,543.24"/>
		</g>
	</g>
	<g>
		<g>
			<path class="st1" d="M451.01,539.99c0.08,0.12-11.16,7.78-25.11,17.11c-13.95,9.33-25.32,16.8-25.4,16.68
				c-0.08-0.12,11.16-7.78,25.11-17.11C439.56,547.34,450.93,539.87,451.01,539.99z"/>
		</g>
	</g>
	<g>
		<g>
			<path class="st1" d="M492.28,529.63c0.08,0.12-18.62,12.77-41.76,28.24c-23.15,15.48-41.97,27.93-42.05,27.81
				c-0.08-0.12,18.61-12.76,41.76-28.25C473.37,541.97,492.2,529.51,492.28,529.63z"/>
		</g>
	</g>
	<g>
		<g>
			<path class="st1" d="M500.55,542c0.08,0.12-18.62,12.77-41.76,28.24c-23.15,15.48-41.97,27.93-42.05,27.81
				c-0.08-0.12,18.61-12.76,41.76-28.25C481.64,554.33,500.47,541.88,500.55,542z"/>
		</g>
	</g>
	<g>
		<g>
			<path class="st1" d="M508.82,554.37c0.08,0.12-18.62,12.77-41.76,28.24c-23.15,15.48-41.97,27.93-42.05,27.81
				c-0.08-0.12,18.61-12.76,41.76-28.25C489.91,566.7,508.74,554.25,508.82,554.37z"/>
		</g>
	</g>
	<g>
		<g>
			<path class="st1" d="M517.09,566.73c0.08,0.12-18.62,12.77-41.76,28.24c-23.15,15.48-41.97,27.93-42.05,27.81
				c-0.08-0.12,18.61-12.76,41.76-28.25C498.18,579.07,517.01,566.61,517.09,566.73z"/>
		</g>
	</g>
</g>
<g>
	<g>
		
			<rect x="553.86" y="448.94" transform="matrix(0.8818 0.4716 -0.4716 0.8818 324.5583 -225.493)" class="st0" width="116.6" height="171.69"/>
	</g>
	<g>
		<g>
			<polygon class="st1" points="605.49,590.62 598.96,592.85 582.4,547.08 588.93,544.84 			"/>
		</g>
		<g>
			<polygon class="st1" points="615.49,557.78 617.86,564.35 572.4,579.91 570.03,573.35 			"/>
		</g>
	</g>
	<g>
		<g>
			<path class="st2" d="M659.75,518.63"/>
		</g>
	</g>
	<g>
		<g>
			<path class="st1" d="M647.79,490.24c-0.08,0.15-10.51-5.27-23.29-12.11c-12.79-6.84-23.08-12.5-23-12.65
				c0.08-0.15,10.51,5.27,23.29,12.11C637.57,484.43,647.87,490.09,647.79,490.24z"/>
		</g>
	</g>
	<g>
		<g>
			<path class="st1" d="M672.46,517.47c-0.08,0.15-17.34-8.92-38.54-20.26c-21.21-11.34-38.34-20.66-38.26-20.81
				c0.08-0.15,17.34,8.92,38.55,20.27C655.41,508.01,672.54,517.32,672.46,517.47z"/>
		</g>
	</g>
	<g>
		<g>
			<path class="st1" d="M666.4,528.81c-0.08,0.15-17.34-8.92-38.54-20.26c-21.21-11.34-38.34-20.66-38.26-20.81
				c0.08-0.15,17.34,8.92,38.55,20.27C649.35,519.34,666.48,528.66,666.4,528.81z"/>
		</g>
	</g>
	<g>
		<g>
			<path class="st1" d="M660.34,540.14c-0.08,0.15-17.34-8.92-38.54-20.26c-21.21-11.34-38.34-20.66-38.26-20.81
				c0.08-0.15,17.34,8.92,38.55,20.27C643.29,530.67,660.42,539.99,660.34,540.14z"/>
		</g>
	</g>
	<g>
		<g>
			<path class="st1" d="M654.28,551.47c-0.08,0.15-17.34-8.92-38.54-20.26c-21.21-11.34-38.34-20.66-38.26-20.81
				c0.08-0.15,17.34,8.92,38.55,20.27C637.23,542,654.36,551.32,654.28,551.47z"/>
		</g>
	</g>
</g>
<g>
	<g>
		<g>
			<path class="st3" d="M593.3,455.44h120.46c0,0-11.12-53.23-61.14-53.23C608.12,402.2,593.3,455.44,593.3,455.44z"/>
		</g>
	</g>
	<rect x="652.23" y="358.25" class="st3" width="2.58" height="43.98"/>
</g>
<g>
	<g>
		<path class="st4" d="M764.41,385.58c0,0-0.37,0.01-1.08-0.02c-0.71-0.04-1.76-0.1-3.15,0.02c-2.74,0.18-6.87,0.8-11.72,3.24
			c-4.8,2.43-10.41,6.72-14.88,13.9c-2.22,3.57-4.07,7.87-5.19,12.74c-1.09,4.88-1.46,10.29-0.94,15.86c0.59,5.55,2,11.29,4.6,16.57
			c1.29,2.63,2.81,5.19,4.68,7.44c1.8,2.32,3.93,4.37,6.33,5.93c2.39,1.55,5.13,2.53,7.94,2.4c2.78-0.11,5.65-1.28,7.69-3.72
			c2.05-2.42,3.06-5.96,3.06-9.5c0.01-3.57-1.02-7.11-2.79-10.1c-3.57-6.01-9.34-10.06-15.48-12.24c-6.2-2.17-13.01-2.22-19.53-0.32
			c-3.25,1.01-6.42,2.5-9.41,4.48c-2.98,1.99-5.7,4.59-8.08,7.59c-0.56,0.79-1.21,1.49-1.71,2.35l-1.55,2.51
			c-0.91,1.78-1.83,3.56-2.53,5.5c-1.46,3.82-2.48,7.92-2.99,12.15c-0.92,8.44-0.07,17.14,2.78,24.73
			c2.75,7.6,7.44,14.12,13.28,18.06c2.91,1.95,6.14,3.21,9.4,3.42c3.26,0.24,6.51-0.76,9.28-2.67c2.76-1.9,5.07-4.76,6.28-8.2
			c1.2-3.44,1.18-7.36,0.14-10.78c-1.02-3.45-2.94-6.4-5.17-8.76c-2.25-2.36-4.87-4.13-7.6-5.3c-5.55-2.17-11.46-2.05-16.74-0.35
			c-5.3,1.73-10.02,5-13.73,9.18c-3.7,4.2-6.3,9.36-7.87,14.62c-3.17,10.61-2.37,21.38,0.36,29.61c2.81,8.3,7.26,14.21,11.33,18.12
			c4.11,3.93,7.84,6.06,10.41,7.27c1.29,0.59,2.29,1.01,2.97,1.24c0.68,0.25,1.02,0.41,1.02,0.41s-0.36-0.09-1.04-0.32
			c-0.69-0.2-1.7-0.6-3-1.16c-2.59-1.16-6.37-3.25-10.53-7.17c-4.12-3.9-8.65-9.82-11.53-18.2c-2.79-8.32-3.65-19.22-0.47-30
			c1.58-5.35,4.21-10.61,7.97-14.9c3.77-4.27,8.56-7.61,13.96-9.38c5.38-1.75,11.4-1.9,17.1,0.32c2.82,1.19,5.51,3,7.83,5.43
			c2.3,2.43,4.29,5.47,5.37,9.08c1.09,3.57,1.12,7.72-0.14,11.35c-1.27,3.63-3.69,6.62-6.56,8.6c-2.87,1.99-6.26,3.04-9.66,2.79
			c-3.39-0.22-6.71-1.52-9.71-3.52c-5.99-4.03-10.78-10.69-13.59-18.45c-2.9-7.74-3.77-16.59-2.83-25.19
			c0.52-4.3,1.56-8.48,3.05-12.38c0.71-1.98,1.66-3.8,2.59-5.62l1.59-2.57c0.51-0.87,1.17-1.6,1.75-2.4
			c2.43-3.07,5.21-5.72,8.25-7.75c3.04-2.02,6.28-3.53,9.58-4.56c6.64-1.93,13.57-1.86,19.89,0.35c6.27,2.24,12.14,6.34,15.84,12.58
			c1.83,3.09,2.92,6.82,2.89,10.55c-0.01,3.7-1.07,7.46-3.27,10.04c-2.18,2.59-5.21,3.81-8.11,3.91c-2.93,0.13-5.78-0.9-8.24-2.5
			c-2.47-1.61-4.63-3.72-6.46-6.08c-1.89-2.3-3.44-4.91-4.74-7.58c-2.63-5.37-4.05-11.2-4.63-16.83c-0.51-5.65-0.12-11.13,1-16.07
			c1.16-4.93,3.06-9.28,5.31-12.88c4.55-7.23,10.24-11.52,15.1-13.92c4.91-2.4,9.06-2.97,11.82-3.1c1.39-0.09,2.45,0,3.16,0.06
			C764.05,385.53,764.41,385.58,764.41,385.58z"/>
	</g>
	<rect x="617.54" y="550.51" class="st5" width="192.8" height="178.25"/>
	<g>
		<polygon class="st6" points="617.54,550.51 653.15,590.32 842.68,590.32 810.34,550.51 		"/>
		<g>
			<path class="st5" d="M617.54,550.51c3.48-0.01,83.11-0.18,192.8-0.42l0.15,0l0.1,0.13c10.33,12.71,21.05,25.9,32.01,39.4
				c0.11,0.14,0.23,0.28,0.33,0.41l0.59,0.73l-0.85,0c-77.72-0.07-146.69-0.13-189.53-0.17h-0.09l-0.06-0.07
				C630.72,565.38,618.71,551.83,617.54,550.51c1.18,1.31,13.29,14.73,35.76,39.63l-0.15-0.07c42.84-0.04,111.81-0.1,189.53-0.17
				l-0.26,0.73c-0.11-0.13-0.22-0.27-0.33-0.41c-10.96-13.5-21.68-26.69-32-39.41l0.25,0.13
				C700.65,550.69,621.01,550.52,617.54,550.51z"/>
		</g>
	</g>
	<g>
		<path class="st4" d="M675.45,632.7c-2.04,0-3.9,2.2-3.94,4.65c-0.04,2.45,1.76,4.72,3.8,4.81c2.04,0.09,3.97-2.02,4.08-4.46
			c0.11-2.44-1.61-4.79-3.65-4.97"/>
		<path class="st4" d="M720.97,632.7c-2.04,0-3.9,2.2-3.94,4.65c-0.04,2.45,1.76,4.72,3.8,4.81c2.04,0.09,3.97-2.02,4.08-4.46
			c0.11-2.44-1.61-4.79-3.65-4.97"/>
		<g>
			<path class="st4" d="M721.26,675.37c-0.21,0.1-0.51-4.46-3.82-10.25c-1.62-2.87-4.06-5.91-7.28-8.38
				c-3.21-2.47-7.28-4.24-11.68-4.43c-4.41-0.1-8.55,1.41-11.87,3.66c-3.34,2.25-5.9,5.13-7.66,7.89c-3.57,5.56-4.08,10.1-4.28,9.98
				c-0.02-0.01,0.01-0.27,0.11-0.78c0.12-0.5,0.21-1.27,0.5-2.19c0.5-1.88,1.51-4.52,3.26-7.38c1.74-2.86,4.33-5.86,7.73-8.21
				c3.39-2.35,7.66-3.93,12.22-3.83c4.56,0.2,8.75,2.06,12.02,4.63c3.29,2.57,5.74,5.73,7.35,8.7c1.62,2.97,2.51,5.67,2.92,7.58
				c0.26,0.94,0.31,1.71,0.4,2.22C721.26,675.1,721.29,675.37,721.26,675.37z"/>
		</g>
	</g>
	<polygon class="st7" points="617.97,552.47 652.07,604.29 810.34,604.29 810.34,590.32 653.15,590.32 	"/>
	<g>
		<path class="st4" d="M772.32,728.35c-0.2,0-0.36-31-0.36-69.24c0-38.25,0.16-69.25,0.36-69.25c0.2,0,0.36,31,0.36,69.25
			C772.68,697.35,772.52,728.35,772.32,728.35z"/>
	</g>
	<rect x="785.6" y="687.94" class="st0" width="16.99" height="23.03"/>
	<g>
		<polygon class="st8" points="617.54,550.51 577.95,590.32 617.54,590.32 		"/>
	</g>
</g>
<ellipse id="Shadow_29_" class="st1" cx="495.41" cy="806.01" rx="93.29" ry="53.86"/>
<g id="Character_7_">
	<path class="st9" d="M524.2,438.37c6.11,8.21,14.28,53.4,17.37,67.89c14.86-0.43,34.73-1.12,42.26-1.91
		c8.34-0.88,26.28-2.59,35.07-1.44c21.82,2.86,20.95,17.13,20.44,20.87c-0.58,4.29-3.64,6.24-15.31,3.57c-2.62-0.6-5.31-0.89-8-0.94
		c-1.14-0.02-3.52-0.57-4.42,0.4c-1.34,1.45,2.63,3.74,3.64,4.39c1.55,1,3.17,2.27,3.5,4.09c0.12,0.68-0.01,1.48-0.58,1.85
		c-0.51,0.33-1.18,0.21-1.77,0.07c-5.35-1.26-10.53-3.24-15.37-5.85c-1.88-1.01-3.72-2.13-5.75-2.79c-3.03-0.98-6.16-0.4-9.21-0.4
		c-6.55,0-41.19,3.43-56.59,5c-10.66,1.09-11.8-9.45-15.48-20.1c-4.57-13.25-15.26-82.81-15.26-82.81
		C509.52,428.7,516.94,428.61,524.2,438.37z"/>
	<path class="st10" d="M498.58,429.18c5.16-0.94,16.75-2.39,23.08,4.66c6.33,7.06,7.82,14.47,10.6,25.15
		c2.78,10.67,7.67,29.85,7.67,29.85s-8.14,11.69-33.65,8.38L498.58,429.18z"/>
	<g id="XMLID_780_">
		<polygon id="XMLID_800_" class="st9" points="434.53,798.73 452.46,798.75 457.61,759.82 434.98,758.93 		"/>
		<path id="XMLID_799_" class="st9" d="M494.05,779.3c3.06,5.28,12.85,4.86,21.02,2.98l0.94-38.27l-23.98-0.94L494.05,779.3z"/>
		<path id="XMLID_798_" class="st11" d="M435.74,552.79c-0.65,16.56,1.54,114.49,1.54,114.49c-0.59,4.75-5.51,13.04-6.54,30.18
			c-1.49,24.86,3.59,78.05,3.59,78.05s10.27,5.37,21.33,1.26c0,0,11.27-76.92,15.34-101.43c3.55-21.39,8.12-78.74,8.12-78.74
			l8.85,73.52c0,0-2.48,11.63-2.01,26.4c0.36,11.43,6.87,66.94,6.87,66.94s10.93,4.09,22.94,0.55c0,0,5.35-86.15,5.96-96.6
			c0.7-11.91,0.22-117.02,0.22-117.02L435.74,552.79z"/>
		<path id="XMLID_796_" class="st12" d="M479.13,596.6c0,0,15.66-4.44,26.34-13.97c0,0-5,8.54-19.17,16.11l0.81,64.17L479.13,596.6z
			"/>
		<g>
			<path id="XMLID_795_" class="st4" d="M472.95,831.2c0.58,0.59,0.25,4.45-0.46,5.47c-0.76,1.09-4.98,4.42-12.39,4.65
				c-7.08,0.23-13.35-0.97-17.4-3.77c-4.04-2.8-5.94-5.78-6.17-9.82c-0.23-4.04,0.37-7.9-1.43-11.07c-1.66-2.93-4.35-6.26-4.91-7.84
				c-1.2-3.43,0.27-8.2,0.27-8.2L472.95,831.2z"/>
			<path id="XMLID_794_" class="st13" d="M455,795.32c-0.01,1.57,0.21,3,0.64,4.51c0.9,3.16,2.34,6.16,3.98,9.02
				c0.84,1.47,1.74,2.92,2.78,4.27c2.04,2.63,4.61,4.82,6.77,7.34c2.17,2.53,3.97,5.56,4.02,8.84c0.08,5.55-6,7.2-10.66,7.84
				c-4.98,0.69-10.24,0.22-15.01-1.35c-5.31-1.74-9.02-6.05-9.7-11.44c-0.2-1.55-0.04-3.12-0.16-4.67
				c-0.28-3.55-1.98-6.84-3.93-9.86c-1.13-1.75-2.37-3.46-3.1-5.4c-1.31-3.49,0-7.3,1.06-10.68c0.91-2.92,1.94-6.22,2.96-5.9
				c0,1.55-0.06,1.69,1,2.77c1.34,1.37,1.32,3.34,2.74,4.56c-0.62-1.82-0.63-2.59-0.87-3.98c-0.07-0.42,0.07-1.25,0.37-1.55
				c0.41-0.41,1.08-0.65,1.74-0.84c2.21-0.65,4.49-1.08,6.79-1.27c2.1-0.18,4.51-0.34,6.57,0.21c0.63,0.17,1.24,0.5,1.61,1.02
				c0.39,0.55,0.45,1.03,0.51,1.92C455.17,791.56,455.01,793.85,455,795.32z"/>
			<path id="XMLID_793_" class="st0" d="M460.32,810.04c-2-1.63-6.62-1.83-9.16-1.66c-3.18,0.22-5.78,1.22-7.28,2.24
				c-0.66,0.45-1.56,0.33-2.11-0.25l0,0c-0.66-0.7-0.55-1.81,0.25-2.35c1.59-1.07,4.44-2.56,8.2-2.68c6.24-0.19,8.02,0.94,8.02,0.94
				S461,808.23,460.32,810.04z"/>
			<path id="XMLID_789_" class="st0" d="M464.84,815.91c-2.53-1.63-7.63-1.61-10.16-1.44c-3.18,0.22-5.59,1.37-7.09,2.38
				c-0.66,0.45-1.56,0.33-2.11-0.25l0,0c-0.66-0.7-0.55-1.81,0.25-2.35c1.59-1.07,4.62-2.79,8.39-2.91
				c6.24-0.19,7.81,1.14,7.81,1.14S464.5,813.6,464.84,815.91z"/>
			<path id="XMLID_786_" class="st0" d="M447.97,799.3c4.31-0.28,6.12,0.28,7.79,0.96c1.07,0.66,1.73,2.42,1,2.83
				c-1.35-0.82-3.83-1.24-6.89-1.22c-2.05,0.01-4.67,0.74-6.8,1.58c-0.54,0.21-1.18,0.52-1.75,0.81c-0.76,0.38-1.69,0.05-2.02-0.72
				l0,0c-0.28-0.65-0.02-1.41,0.61-1.76C441.45,800.93,444.48,799.52,447.97,799.3z"/>
		</g>
		<g>
			<path id="XMLID_785_" class="st4" d="M555.99,803.16c0.64,1.2,0.58,3.5-0.04,4.99c-0.63,1.49-8.02,6.14-18.31,5.93
				c-10.29-0.2-17.53-4-21.56-6.4c-4.03-2.4-8.13-2.69-13.22-2.74c-5.09-0.05-11.88-2.26-13.11-4.59c-1.23-2.32-0.14-6.47-0.14-6.47
				L555.99,803.16z"/>
			<path id="XMLID_784_" class="st13" d="M513.09,773.12c0.26-0.07,0.53-0.14,0.8-0.21c0.44-0.11,0.9-0.22,1.35-0.14
				c0.51,0.1,0.94,0.43,1.31,0.79c1.16,1.15,1.9,2.64,2.81,3.99c2.32,3.4,6.97,6.09,12.02,8.51c3.44,1.64,6.78,2.88,10.32,4.27
				c3.6,1.42,8.33,2.17,11.18,3.9c4.15,2.52,5,9.31,0.54,12.22c-3.84,2.51-14.13,5.52-25.19,2.95c-6.03-1.4-12.93-7.44-20.76-7.68
				c-4.98-0.15-14.43-1.1-17.81-4.72c-1.26-1.62,0.06-6.99,1.14-11.62c1.18-5.06,0.64-12.63,2.9-12.54l0.14,2.53
				c0.21,0.76,1.99,1.5,2.54,2.08c0.67,0.71,1.34,1.42,2.02,2.13c0.88,0.93,1.79,1.88,2.96,2.4c2.01,0.9,4.34,0.36,6.47-0.19
				c0.1-0.03-1.08-3.89-1.19-4.26c-0.1-0.31-0.2-0.63-0.12-0.94c0.08-0.31,0.34-0.55,0.6-0.74
				C508.97,774.4,510.92,773.7,513.09,773.12z"/>
			<path id="XMLID_783_" class="st0" d="M526.62,783.59c0,0-0.8-1.87-3.78-2.28c-2.28-0.31-6.19,1.54-8.57,3.7
				c-0.98,0.88-0.77,2.47,0.41,3.05l0,0c0.7,0.35,1.54,0.21,2.1-0.34C518.35,786.23,521.87,783.49,526.62,783.59z"/>
			<path id="XMLID_782_" class="st0" d="M533.81,787.17c0,0-1.57-2.21-4.45-2.03c0,0-5.89,0.45-9.38,4.03
				c-0.89,0.91-0.76,2.39,0.39,2.95v0c0.68,0.33,1.48,0.2,2.03-0.33C523.97,790.24,527.12,786.99,533.81,787.17z"/>
			<path id="XMLID_781_" class="st0" d="M541.7,790.34c0,0-1.72-1.99-4.61-1.81c0,0-5.48,0.47-8.97,4.04
				c-0.89,0.91-0.76,2.39,0.39,2.95l0,0c0.68,0.33,1.48,0.2,2.03-0.33C532.11,793.64,535.02,790.16,541.7,790.34z"/>
		</g>
	</g>
	<g id="XMLID_778_">
		<path id="XMLID_779_" class="st14" d="M468.69,429.49c-6.6,0.75-14.4,1.16-20.7,1.98c-8.12,1.07-14.46,9.47-16.43,22.45
			c-2.18,14.32,6.94,55.35,6.94,55.35l-2.92,48.38c11.9,8.77,62.54,13.37,87.79-4.86c0,0-0.59-82.35-2.56-94.99
			c-2.72-17.39-6.95-28.2-26.57-29.44L468.69,429.49z"/>
	</g>
	<g id="XMLID_771_">
		<path id="XMLID_770_" class="st9" d="M423.59,534.31c2.14,3.58,4.29,7.15,6.5,10.69c0.82,1.31,1.64,2.62,2.5,3.9
			c0.31,0.46,1.17,1.38,1.61,1.69c1.06,0.73,3.27,0.27,4.55,0.31c6.31,0.21,12.62,0.67,18.89,1.38c1.04,0.12,2.22,0.32,2.78,1.21
			c0.64,1.01,0.08,2.43-0.89,3.13s-2.21,0.86-3.4,1c-1.82,0.22-3.64,0.44-5.45,0.65c-0.77,0.09-1.58,0.2-2.18,0.69
			c-1.98,1.61,1.8,3.54,2.94,4.32c2.27,1.57,4.7,2.94,7.25,4.02c11.36,4.79,12.74,8.26,10.65,12.19
			c-1.82,3.43-9.67,15.88-29.63,5.16c-8.04-4.32-20.27-17.96-25.84-24.56c-8.03-9.52-21.6-30.77-21.6-30.77
			c-7.71-10.6-8.71-14.94-8.88-19.36c-0.17-4.41,23.77-38.26,31.89-50.15c8.12-11.88,12.01-26.36,32.71-28.35
			c0,0,7.87,24.99-5.17,41.16l-30.15,42.05C412.67,514.69,420.65,529.4,423.59,534.31z"/>
		<path id="XMLID_767_" class="st10" d="M401.73,475.98c3.86-5.59,7.9-11.35,11.81-17.05c16.41-23.96,15.04-28.35,38.71-28.69
			c2.1,3.22,3.34,17.05,0.19,30.94c-2.65,11.68-12.54,19.9-12.54,19.9l-11.86,16.06c0,0-7.25-0.22-15.95-6.6
			S401.73,475.98,401.73,475.98z"/>
	</g>
	<g id="XMLID_605_">
		<g id="XMLID_756_">
			<path class="st4" d="M453.09,366.51c4.47-6.25,10.97-5.17,10.97-5.17l1.22,30.01l1.98,11.08l-0.35,12.33c0,0-3.34-0.17-5.36-4.07
				c-1.83-3.55-6.93-20.72-6.93-20.72l0.02,0.02C449.95,375.9,450.94,369.51,453.09,366.51z"/>
			<path id="XMLID_765_" class="st9" d="M466.69,391.48c-0.59-1.88-1.16-2.94-2.89-4.78c-1.72-1.83-8.57-3.84-11.69,1.97
				c-3.18,5.93,2.14,13.49,6.19,15.84c5.19,3.01,8.24-1.09,8.24-1.09l-0.12,27.62l0,0c2.41,5.56,13.33,10.57,19.82,9.75
				c5.18-0.66,9.95-4.73,5.32-10.66l0.37-7.87c0,0,6.91,1.4,10.34,1.05c5.7-0.59,9.48-4.88,11.5-10.92
				c3.24-9.7,4.68-17.58,3.3-37.03c-1.51-21.32-26.15-22.76-39.88-15.05C463.46,368.02,466.69,391.48,466.69,391.48z"/>
			<path id="XMLID_764_" class="st4" d="M524.91,353.25c0.62-4.65-0.99-9.64-5.86-11.29c-3.67-1.25-7.44-1.18-10.82,1.8
				c-1.21-3.28-4.38-5.75-7.85-6.11c-3.48-0.37-7.09,1.39-8.95,4.35c-1.47-2.07-3.21-3.32-5.62-3.91c-2.82-0.69-6.3,0.03-8.3,1.51
				c-2,1.47-4.32,4.26-3.73,7.73c-3.93-1.57-8.02-0.27-10.94,3.21c-1.75,2.08-2.7,4.78-2.78,7.49c-0.04,1.32,0.04,2.93,0.59,4.16
				c0.57,1.28,1.72,2.11,2.04,3.55c0.31,1.35,0.93,2.6,0.75,3.97c-0.32,2.35-0.84,4.69-1.15,7.05c-0.3,2.28-0.56,4.58-0.58,6.88
				c-0.01,1.1,0.78,1.88,1.7,2.69c1.49,1.32,1.83,2.01,2.94,4.26c0.5,1,0.97,3.49,1.94,4.17c2.98,2.08,3.3-4.67,3.45-5.96
				c0.14-1.29,0.18-4.67-0.06-8.96c0.95-0.06,4.89-0.12,7.93-3.64c0.99-1.15,1.77-2.9,1.97-4.38c0.13-0.95,0.27-1.78,0.23-2.74
				c1.94,3.21,6.46,4.53,9.67,4.24c5.4-0.49,7.25-2.79,8.12-4.49c0.4,1.51,1.05,3.44,2.15,4.56c1.38,1.41,3.22,2.26,4.84,2.82
				c3.01,1.03,6.61-0.27,8.83-2.54c2.19,3.15,7.75,1.74,8.99,0.86c2.82-2.03,3.7-4.43,4.01-7.9c0.31-3.46-1.09-7.38-4.91-8.74
				C524.2,356.47,524.69,354.88,524.91,353.25z"/>
			<path id="XMLID_759_" class="st15" d="M491.92,422.25c0,0-12.5-3.17-16.79-5.73c-2.88-1.72-5.17-4.56-5.8-6.34
				c0,0,0.64,3.79,3.11,7.29c3.02,4.29,19.32,8.14,19.32,8.14L491.92,422.25z"/>
		</g>
		<g id="XMLID_691_">
			<path id="XMLID_753_" class="st4" d="M491.22,390.56c-0.08,1.55-1.35,2.75-2.85,2.67c-1.5-0.08-2.64-1.4-2.57-2.96
				c0.08-1.55,1.35-2.75,2.85-2.67C490.15,387.68,491.3,389,491.22,390.56z"/>
			<path id="XMLID_749_" class="st15" d="M495.41,410.77c-0.1,2-1.74,3.54-3.67,3.44c-1.93-0.1-3.4-1.8-3.31-3.8
				c0.1-2,1.74-3.54,3.67-3.44C494.03,407.07,495.51,408.77,495.41,410.77z"/>
			<path id="XMLID_750_" class="st4" d="M488.97,381.25l-5.76,2.81c-0.75-1.65-0.06-3.62,1.53-4.4
				C486.33,378.89,488.23,379.6,488.97,381.25z"/>
			<path id="XMLID_748_" class="st4" d="M514.02,383.66l-4.91-4.19c1.12-1.41,3.12-1.62,4.48-0.46
				C514.94,380.17,515.14,382.25,514.02,383.66z"/>
			<path id="XMLID_745_" class="st4" d="M512.55,390.01c-0.07,1.5-1.31,2.66-2.75,2.58c-1.45-0.08-2.56-1.36-2.48-2.86
				c0.07-1.5,1.31-2.66,2.75-2.58C511.51,387.23,512.62,388.51,512.55,390.01z"/>
			<polygon id="XMLID_724_" class="st15" points="499.58,386.9 499.66,403.44 508.42,400.93 			"/>
		</g>
	</g>
	<g>
		<g>
			<path class="st1" d="M521.54,410.03c-0.16-0.04-0.3-0.13-0.4-0.27c-0.2-0.3-0.12-0.7,0.18-0.9l7.6-5.06
				c0.3-0.2,0.7-0.12,0.9,0.18c0.2,0.3,0.12,0.7-0.18,0.9l-7.6,5.06C521.89,410.04,521.71,410.07,521.54,410.03z"/>
		</g>
		<g>
			<path class="st1" d="M522.35,413.3c-0.24-0.05-0.43-0.24-0.49-0.49c-0.08-0.35,0.14-0.7,0.49-0.78l8.89-2.06
				c0.35-0.08,0.7,0.14,0.78,0.49c0.08,0.35-0.14,0.7-0.49,0.78l-8.89,2.06C522.54,413.32,522.45,413.32,522.35,413.3z"/>
		</g>
		<g>
			<path class="st1" d="M530.61,419.22c-0.03-0.01-0.06-0.01-0.08-0.02l-8.57-3.14c-0.34-0.12-0.51-0.5-0.39-0.83
				c0.12-0.34,0.52-0.5,0.83-0.39l8.57,3.14c0.34,0.12,0.51,0.5,0.39,0.83C531.24,419.11,530.92,419.29,530.61,419.22z"/>
		</g>
	</g>
	<g>
		<g>
			<path class="st1" d="M603.09,486.26c-0.22,0.45-0.62,0.82-1.13,1c-1.05,0.38-2.21-0.17-2.59-1.21l-6.38-15.72
				c-0.38-1.05,0.17-2.21,1.22-2.59c1.05-0.38,2.21,0.17,2.59,1.21l6.38,15.72C603.38,485.21,603.33,485.78,603.09,486.26z"/>
		</g>
		<g>
			<path class="st1" d="M613.58,486.23c-0.34,0.68-1.04,1.14-1.84,1.12c-1.12-0.02-2.01-0.93-1.99-2.05l0.2-19.61
				c0.01-1.11,0.93-2.01,2.05-1.99c1.12,0.02,2.01,0.93,1.99,2.05l-0.2,19.61C613.79,485.67,613.71,485.97,613.58,486.23z"/>
		</g>
		<g>
			<path class="st1" d="M631.38,475.29c-0.04,0.08-0.09,0.16-0.14,0.23l-9.63,13.98c-0.62,0.93-1.88,1.17-2.81,0.55
				c-0.93-0.63-1.14-1.96-0.55-2.81l9.63-13.98c0.62-0.93,1.88-1.17,2.81-0.55C631.55,473.3,631.82,474.4,631.38,475.29z"/>
		</g>
	</g>
</g>
<g>
	<g>
		<rect x="633.15" y="729.43" class="st16" width="161.21" height="75.37"/>
		<rect x="633.15" y="729.43" class="st17" width="161.21" height="75.37"/>
		<g>
			<path class="st4" d="M753.97,804.27c-0.14,0-0.26-16.8-0.26-37.52c0-20.73,0.12-37.52,0.26-37.52s0.26,16.8,0.26,37.52
				C754.23,787.47,754.11,804.27,753.97,804.27z"/>
		</g>
		<rect x="768.33" y="787.65" class="st0" width="12.36" height="8.47"/>
		<rect x="682.33" y="729.63" class="st4" width="18.31" height="16.08"/>
		<rect x="682.33" y="788.5" class="st4" width="18.31" height="16.08"/>
	</g>
	<g>
		<path class="st4" d="M792.96,729.43c0,0.01-0.14,0.01-0.41,0.02c-0.3,0-0.7,0.01-1.21,0.02c-1.09,0.01-2.66,0.02-4.66,0.03
			c-4.07,0.01-9.91,0.03-17.12,0.05c-14.48,0.01-34.45,0.03-56.49,0.05c-22.06-0.02-42.02-0.03-56.5-0.05
			c-7.21-0.02-13.05-0.04-17.12-0.05c-2-0.01-3.56-0.02-4.66-0.03c-0.51-0.01-0.91-0.01-1.21-0.02c-0.27-0.01-0.41-0.01-0.41-0.02
			c0-0.01,0.14-0.01,0.41-0.02c0.3,0,0.7-0.01,1.21-0.02c1.09-0.01,2.66-0.02,4.66-0.03c4.07-0.01,9.91-0.03,17.12-0.05
			c14.48-0.01,34.45-0.03,56.5-0.05c22.05,0.02,42.01,0.03,56.49,0.05c7.21,0.02,13.05,0.04,17.12,0.05c2,0.01,3.56,0.02,4.66,0.03
			c0.51,0.01,0.91,0.01,1.21,0.02C792.82,729.42,792.96,729.43,792.96,729.43z"/>
	</g>
</g>
<g id="Shelf_2_">
	<g id="Shelf">
		<path class="st18" d="M453.47,384.65v-5.52h0c-0.02-0.52-0.38-1.06-1.1-1.47l-33.32-19.12c-1.41-0.81-3.71-0.81-5.12,0
			l-95.79,54.97c-0.72,0.41-1.09,0.95-1.1,1.47h0v5.52h0c0.02,0.52,0.38,1.06,1.1,1.47l33.32,19.12c1.41,0.81,3.71,0.81,5.12,0
			l95.79-54.97C453.09,385.71,453.46,385.18,453.47,384.65L453.47,384.65z"/>
		<path class="st19" d="M318.14,416.46l33.32,19.12c1.41,0.81,3.71,0.81,5.12,0l95.79-54.97c1.41-0.81,1.41-2.13,0-2.94
			l-33.32-19.12c-1.41-0.81-3.71-0.81-5.12,0l-95.79,54.97C316.73,414.33,316.73,415.64,318.14,416.46z"/>
		<path class="st1" d="M354.02,436.19v5.51c-0.92,0-1.85-0.21-2.56-0.61l-33.32-19.12c-0.72-0.41-1.09-0.95-1.1-1.47h-0.01v-5.51
			h0.01c0.01-0.21,0.09-0.42,0.21-0.62c-0.39,0.71-0.1,1.53,0.89,2.09l33.32,19.12C352.16,435.99,353.09,436.19,354.02,436.19z"/>
	</g>
	<g id="Book_2_">
		<g id="XMLID_866_">
			<polygon id="XMLID_871_" class="st1" points="371.92,389.55 400.15,405.65 446.78,378.88 418.56,362.79 			"/>
			<path id="XMLID_870_" class="st20" d="M400.47,404.42l-27.23-15.63c0.71-2.02,0.66-4.37-0.15-7.06l27.06,15.46
				C400.15,397.2,400.66,398.9,400.47,404.42z"/>
			<path id="XMLID_869_" class="st21" d="M398.76,394.99c1.44,0.83,2.62,2.85,2.62,4.5v5.26c0,1.66-1.17,2.33-2.62,1.5l-26.84-15.4
				l0-1.3l26.48,15.1c0.87,0.5,1.57,0.09,1.57-0.9l-0.02-4.88c0-1-0.7-2.21-1.57-2.7l-26.45-15.11v-1.48L398.76,394.99z"/>
			<path id="XMLID_868_" class="st19" d="M371.92,379.59l46.64-26.76l26.84,15.4c1.44,0.83,2.62,2.85,2.62,4.5l0,5.26
				c0,0.83-0.29,1.41-0.77,1.68l-46.64,26.76c0.48-0.27,0.77-0.86,0.77-1.68l0-5.27c0-1.66-1.17-3.68-2.62-4.5L371.92,379.59z"/>
			<path id="XMLID_867_" class="st18" d="M400.61,396.93c0.47,0.82,0.77,1.73,0.77,2.56l0,5.27c0,0.83-0.29,1.41-0.77,1.68
				l46.64-26.76c0.48-0.27,0.77-0.86,0.77-1.68l0-5.26c0-0.83-0.29-1.75-0.77-2.56L400.61,396.93z"/>
		</g>
	</g>
	<g id="Book_1_">
		<polygon id="XMLID_2995_" class="st21" points="343.22,349.5 342.95,353.07 374.47,369.97 375.18,367.9 		"/>
		<polygon id="XMLID_2993_" class="st20" points="374.76,368.72 344.23,351.1 338.92,354.16 370.05,372.38 		"/>
		<path id="XMLID_2991_" class="st1" d="M364.32,370.49l-3.02,35.38c0,0.72,0.51,1.6,1.13,1.96l17.71,10.25
			c0.26,0.15,0.58,0.24,0.92,0.26l-11.01-44.81c-0.34-0.03-0.66-0.11-0.92-0.26l-1.28-0.74L364.32,370.49z"/>
		<path id="XMLID_2990_" class="st18" d="M371.4,373.27l3.16-2.7l2.32-1.99c0.24-0.38,0.51-0.66,0.36-0.97l10.86,44.49l0.02,0.03
			c0.15,0.31,0.19,1.01-0.23,1.26l-5.48,4.69c-0.37,0.21-0.87,0.3-1.35,0.26l-11.01-44.81C370.53,373.57,371.03,373.48,371.4,373.27
			z"/>
		<path id="XMLID_2988_" class="st19" d="M376.87,367.27c0.63,0.36,0.47,0.76,0,1.31l-5.48,4.69c-0.63,0.36-1.64,0.36-2.26,0
			l-4.82-2.78c-0.63-0.36-0.74-0.88-0.25-1.16c0.49-0.28,1.39-0.22,2.02,0.14l3.8,2.19c0.21,0.12,0.55,0.12,0.75,0l4-3.48
			c0.21-0.12,0.21-0.32,0-0.44l-31.43-18.25l1.51-0.87L376.87,367.27z"/>
	</g>
	<g id="Book">
		<g id="XMLID_777_">
			<polygon id="XMLID_856_" class="st21" points="334.12,351.21 364.15,368.56 364.15,425.69 334.12,408.35 			"/>
			<path id="XMLID_854_" class="st20" d="M363.18,369.51l-29.07-16.68c-1.5,1.73-3.72,2.94-6.65,3.63l28.82,16.61
				C356.29,373.07,358.15,372.63,363.18,369.51z"/>
			<path id="XMLID_852_" class="st19" d="M353.5,372.97c1.54,0.89,4.04,0.89,5.59,0l4.89-2.81c1.54-0.89,1.54-2.32,0-3.21
				l-28.64-16.44l-1.21,0.69l28.17,16.27c0.93,0.53,0.92,1.39,0,1.92l-4.55,2.58c-0.93,0.53-2.43,0.53-3.35,0l-28.16-16.24
				l-1.37,0.79L353.5,372.97z"/>
			<path id="XMLID_849_" class="st21" d="M324.85,356.53v57.13l28.64,16.44c1.54,0.88,4.04,0.88,5.59,0l4.9-2.81
				c0.77-0.44,1.15-1.02,1.15-1.6v-57.13c0,0.58-0.39,1.16-1.15,1.6l-4.9,2.81c-1.54,0.88-4.04,0.88-5.59,0L324.85,356.53z"/>
			<path id="XMLID_801_" class="st18" d="M356.29,373.64c1.01,0,2.02-0.22,2.79-0.66l4.9-2.81c0.77-0.44,1.15-1.02,1.15-1.6v57.13
				c0,0.58-0.39,1.16-1.15,1.6l-4.9,2.81c-0.77,0.44-1.78,0.66-2.79,0.66V373.64z"/>
		</g>
	</g>
</g>
</svg>
