<?xml version="1.0" encoding="utf-8"?>
<!-- Generator: Adobe Illustrator 26.0.1, SVG Export Plug-In . SVG Version: 6.00 Build 0)  -->
<svg version="1.1" xmlns="http://www.w3.org/2000/svg" xmlns:xlink="http://www.w3.org/1999/xlink" x="0px" y="0px"
	 viewBox="0 0 1920 1080" style="enable-background:new 0 0 1920 1080;" xml:space="preserve">
<style type="text/css">
	.st0{fill:url(#SVGID_1_);}
	.st1{fill:url(#SVGID_00000170982114656713538010000008000220349389273506_);}
	.st2{fill:#F8F3EB;}
	.st3{fill:#DDD2C0;}
	.st4{opacity:0.3;fill:#6B6C6F;}
	.st5{fill:#220012;}
	.st6{fill:#2A0017;}
	.st7{fill:#30021F;}
	.st8{opacity:0.3;fill:#5C5D60;}
	.st9{fill:#2F1148;}
	.st10{fill:#F9AE2B;}
	.st11{fill:#001C26;}
	.st12{fill:#DADBDC;}
	.st13{fill:#649D66;}
	.st14{fill:#FF9357;}
	.st15{fill:#9FCE9F;}
	.st16{fill:#C1E5C1;}
	.st17{fill:#F6D743;}
	.st18{fill:#C6A51A;}
	.st19{fill:#DDBB2C;}
	.st20{fill:#207FC3;}
	.st21{fill:#003D21;}
	.st22{fill:#F6F578;}
	.st23{fill:#DDB81B;}
	.st24{fill:#FFFFFF;}
	.st25{fill:#D3B01E;}
	.st26{fill:#B2920B;}
	.st27{fill:#E53225;}
	.st28{fill:#F2C300;}
	.st29{fill:#06623B;}
	.st30{fill:url(#SVGID_00000128471442353285474550000005071748785763275954_);}
	.st31{fill:url(#SVGID_00000039098832142990252100000016843649494359184060_);}
	.st32{fill:#EF7F48;}
	.st33{fill:none;}
	.st34{fill:#E2C033;}
	.st35{font-family:'MyriadPro-Regular';}
	.st36{font-size:100px;}
	.st37{fill:#D62828;}
	.st38{fill:#409CB5;}
	.st39{fill:url(#SVGID_00000134227705643072794030000017136780403402830722_);}
	.st40{fill:#EA9918;}
</style>
<g id="background">
</g>
<g id="object">
	<g>
		<g>
			<g>
				
					<linearGradient id="SVGID_1_" gradientUnits="userSpaceOnUse" x1="1360.2998" y1="774.1201" x2="1357.8171" y2="702.5349" gradientTransform="matrix(0.7698 0.6383 -0.6383 0.7698 712.8031 -824.3196)">
					<stop  offset="2.300000e-07" style="stop-color:#649D66"/>
					<stop  offset="1" style="stop-color:#06623B"/>
				</linearGradient>
				<path class="st0" d="M1334.27,621.27c1.21-1.87,2.26-3.8,3.14-5.79l7.17,3.37l1.84-5.96l1.84-5.96l-7.82-1.26
					c0.39-2.17,0.62-4.35,0.68-6.54l7.92,0.37l-0.58-6.21l-0.58-6.21l-7.71,1.83c-0.46-2.14-1.09-4.25-1.88-6.31l7.45-2.68
					l-2.91-5.51l-2.91-5.51l-6.41,4.64c-1.24-1.78-2.62-3.49-4.15-5.1l5.86-5.33l-4.8-3.98l-4.8-3.98l-4.15,6.74
					c-1.87-1.21-3.81-2.26-5.79-3.14l3.37-7.16l-5.96-1.84l-5.96-1.84l-1.25,7.82c-2.17-0.39-4.35-0.62-6.54-0.67l0.37-7.91
					l-6.21,0.58l-6.21,0.58l1.83,7.71c-2.14,0.46-4.25,1.09-6.31,1.88l-2.69-7.46l-5.51,2.91l-5.51,2.91l4.64,6.42
					c-1.78,1.24-3.49,2.62-5.1,4.15l-5.34-5.87l-3.98,4.8l-3.98,4.8l6.76,4.16c-1.21,1.87-2.25,3.8-3.14,5.79l-7.18-3.38l-1.84,5.96
					l-1.84,5.96l7.84,1.26c-0.39,2.17-0.62,4.35-0.67,6.54l-7.94-0.37l0.58,6.21l0.58,6.21l7.73-1.84c0.46,2.14,1.09,4.25,1.88,6.31
					l-7.48,2.69l2.91,5.51l2.91,5.51l6.44-4.66c1.24,1.78,2.62,3.49,4.15,5.1l-5.88,5.35l4.8,3.98l4.8,3.98l4.17-6.77
					c1.87,1.21,3.8,2.25,5.79,3.14l-3.38,7.19l5.96,1.84l5.96,1.84l1.26-7.85c2.16,0.39,4.35,0.62,6.54,0.68l-0.37,7.94l6.21-0.58
					l6.21-0.58l-1.84-7.73c2.14-0.46,4.25-1.09,6.31-1.87l2.69,7.47l5.51-2.91l5.51-2.91l-4.65-6.43c1.78-1.24,3.49-2.62,5.1-4.15
					l5.34,5.87l3.98-4.8l3.98-4.8L1334.27,621.27z M1319.79,629.39l-1.48-2.04l-3.62,1.91l-3.62,1.91l0.85,2.37
					c-1.89,0.73-3.82,1.3-5.79,1.72l-0.58-2.44l-4.08,0.38l-4.08,0.38l-0.12,2.5c-2.01-0.05-4.01-0.25-6-0.62l0.4-2.48l-3.91-1.21
					l-3.91-1.21l-1.07,2.27c-1.82-0.81-3.6-1.77-5.31-2.88l1.31-2.13l-3.15-2.61l-3.15-2.61l-1.85,1.68
					c-1.41-1.47-2.68-3.04-3.81-4.67l2.03-1.47l-1.91-3.62l-1.91-3.62l-2.36,0.85c-0.73-1.89-1.3-3.82-1.72-5.79l2.44-0.58
					l-0.38-4.08l-0.38-4.08l-2.51-0.12c0.05-2.01,0.25-4.01,0.61-6l2.48,0.4l1.21-3.91l1.21-3.91l-2.28-1.07
					c0.81-1.82,1.77-3.6,2.88-5.31l2.14,1.32l2.61-3.15l2.61-3.15l-1.7-1.86c1.47-1.41,3.04-2.68,4.68-3.81l1.48,2.05l3.62-1.91
					l3.62-1.91l-0.86-2.38c1.89-0.73,3.83-1.31,5.79-1.72l0.59,2.46l4.08-0.38l4.08-0.38l0.12-2.53c2.01,0.05,4.01,0.25,6,0.62
					l-0.4,2.51l3.91,1.21l3.91,1.21l1.08-2.3c1.82,0.81,3.6,1.77,5.31,2.88l-1.33,2.16l3.15,2.61l3.15,2.61l1.88-1.71
					c1.41,1.47,2.68,3.04,3.81,4.68l-2.06,1.49l1.91,3.62l1.91,3.62l2.39-0.86c0.73,1.89,1.3,3.83,1.72,5.79l-2.46,0.59l0.38,4.08
					l0.38,4.08l2.53,0.12c-0.05,2.01-0.25,4.01-0.62,6l-2.5-0.4l-1.21,3.91l-1.21,3.91l2.29,1.08c-0.81,1.82-1.77,3.6-2.89,5.31
					l-2.15-1.32l-2.61,3.15l-2.61,3.15l1.69,1.86C1322.99,626.99,1321.43,628.26,1319.79,629.39z"/>
			</g>
			
				<linearGradient id="SVGID_00000107583428137544465010000013892146492188004793_" gradientUnits="userSpaceOnUse" x1="1359.845" y1="760.9843" x2="1357.9781" y2="707.1588" gradientTransform="matrix(0.7698 0.6383 -0.6383 0.7698 712.8031 -824.3196)">
				<stop  offset="2.300000e-07" style="stop-color:#06623B"/>
				<stop  offset="1" style="stop-color:#649D66"/>
			</linearGradient>
			<path style="fill:url(#SVGID_00000107583428137544465010000013892146492188004793_);" d="M1322.51,568.66
				c-16.2-13.43-40.22-11.19-53.65,5.01c-13.43,16.2-11.19,40.22,5.01,53.65s40.22,11.19,53.65-5.01
				C1340.95,606.11,1338.71,582.09,1322.51,568.66z M1283.56,615.64c-9.75-8.08-11.1-22.54-3.02-32.28
				c8.08-9.75,22.54-11.1,32.28-3.02c9.75,8.08,11.1,22.54,3.02,32.28C1307.76,622.37,1293.31,623.72,1283.56,615.64z"/>
		</g>
		<g>
			<path class="st2" d="M438.25,304.31c13.34-0.44,26.68,1.12,39.34,5.33c17.03-3.46,34.33-6.55,51.68-5.6
				c13.44,0.74,27.02,4.11,38.49,10.96h0.17c0.79-3.15,1.16-6.44,1.01-9.8c-0.97-21.62-17.53-39.91-39.91-39.91
				c-4.18,0-8.32,0.75-12.26,2.1c-2-21.81-19.08-39.86-41.89-39.86c-21.99,0-43.06,19.34-42.04,42.04c0.13,2.9,0.55,5.72,1.19,8.47
				c-2.84,2.06-5.39,4.5-7.55,7.24c-3.15-0.94-6.51-1.46-10.04-1.46c-14.3,0-28.12,9.65-33.4,22.82c-0.27-0.01-0.53-0.02-0.8-0.02
				c-8.2,0-16.26,3.18-22.63,8.38h3.7c16.74-3.33,33.67-5.74,50.58-8.14C421.99,305.72,430.09,304.58,438.25,304.31z"/>
			<path class="st3" d="M529.28,304.04c-17.35-0.95-34.65,2.13-51.68,5.6c-12.67-4.2-26-5.76-39.34-5.33
				c-8.16,0.27-16.26,1.41-24.34,2.56c-16.91,2.39-33.84,4.81-50.58,8.14h204.44C556.3,308.15,542.72,304.78,529.28,304.04z"/>
		</g>
		<g>
			<path class="st2" d="M490.66,712.52c4.01-4.22,8.02-8.45,12.04-12.67c3.4-3.58,8.81,1.84,5.42,5.41"/>
			<path class="st2" d="M472.04,630.01"/>
			<path class="st2" d="M458.82,583.3c-0.4-4.91,7.26-4.89,7.66,0c1,12.3,2.36,24.54,4.07,36.73c5.74-6.87,10.8-14.23,15.13-22.11
				c2.38-4.32,8.99-0.46,6.61,3.86"/>
			<path class="st2" d="M436.49,663.08c-4.71-1.4-2.71-8.79,2.04-7.38l32.19,9.57"/>
		</g>
		<g>
			<polygon class="st4" points="741.83,336.77 624.55,336.77 624.55,713.48 624.55,733.47 723.46,733.47 914.73,336.77 			"/>
			<g>
				<path class="st5" d="M956.08,761.58c22.48-3.4,44.73-8.07,66.83-13.41c-15.07-40.46-11.24-74.8-11.24-74.8h-61.72h-61.73
					c0,0,5.09,45.68-19.59,93.75C897.8,768.2,927.18,765.95,956.08,761.58z"/>
				<path class="st6" d="M1022.9,748.17c-22.1,5.35-44.34,10.01-66.83,13.41c-28.9,4.37-58.28,6.62-87.45,5.54
					c-14.12,27.49-37.97,55.77-78.11,76.73h159.42h159.42C1059.89,818.01,1035.15,781.07,1022.9,748.17z"/>
				<path class="st7" d="M1131.33,843.85H768.55v-2.48c0-12.7,10.3-23,23-23h316.78c12.7,0,23,10.3,23,23V843.85z"/>
			</g>
			<polygon class="st8" points="1050.13,336.77 843.28,733.47 942.19,733.47 1147.51,336.77 			"/>
			<g>
				<path class="st9" d="M1268.01,748.73H605.09V335c0-9.19,7.45-16.65,16.65-16.65h629.63c9.19,0,16.65,7.45,16.65,16.65V748.73z"
					/>
				<path class="st9" d="M605.09,748.73h662.92V335c0-9.19-7.45-16.65-16.65-16.65H621.73c-9.19,0-16.65,7.45-16.65,16.65V748.73z"
					/>
				<polygon class="st8" points="1251.7,533.18 1251.7,733.47 1099.87,733.47 1251.7,467.65 				"/>
				<path class="st10" d="M1228.33,515.06h-161.64c-8.24,0-13.4-8.92-9.27-16.06l80.82-139.99c4.12-7.14,14.43-7.14,18.55,0
					l80.82,139.99C1241.73,506.13,1236.57,515.06,1228.33,515.06z"/>
				<g>
					<path class="st11" d="M807.4,654.28v-31.27h-58.63v-30.81l37.24-135.64h61.61v133.57h10.58v32.88h-10.58v31.27H807.4z
						 M783.95,590.14h23.45v-99.55L783.95,590.14z"/>
					<path class="st11" d="M901.43,641.98c-9.05-9.43-13.56-22.88-13.56-40.35v-89.2c0-18.7,4.37-32.95,13.1-42.76
						c8.74-9.81,21.76-14.71,39.08-14.71c17.47,0,30.58,4.91,39.31,14.71c8.74,9.81,13.1,24.06,13.1,42.76v89.2
						c0,17.63-4.52,31.12-13.56,40.46c-9.04,9.35-21.99,14.02-38.85,14.02C923.35,656.12,910.47,651.41,901.43,641.98z
						 M947.18,615.77c1.84-2.68,2.76-5.86,2.76-9.54v-97.48c0-5.67-0.65-10-1.95-12.99c-1.3-2.99-3.95-4.48-7.93-4.48
						c-3.99,0-6.59,1.49-7.82,4.48c-1.23,2.99-1.84,7.32-1.84,12.99v97.48c0,3.68,0.88,6.86,2.64,9.54c1.76,2.68,4.1,4.02,7.01,4.02
						C942.96,619.79,945.34,618.46,947.18,615.77z"/>
					<path class="st11" d="M1080.52,654.28v-31.27h-58.62v-30.81l37.24-135.64h61.61v133.57h10.57v32.88h-10.57v31.27H1080.52z
						 M1057.07,590.14h23.45v-99.55L1057.07,590.14z"/>
				</g>
				<g>
					<g>
						<path class="st12" d="M800.46,647.62v-31.27h-58.63v-30.81l37.24-135.64h61.61v133.57h10.58v32.88h-10.58v31.27H800.46z
							 M777.01,583.47h23.45v-99.55L777.01,583.47z"/>
						<path class="st12" d="M894.48,635.32c-9.05-9.43-13.56-22.88-13.56-40.35v-89.2c0-18.7,4.37-32.95,13.1-42.76
							c8.74-9.81,21.76-14.71,39.08-14.71c17.47,0,30.58,4.91,39.31,14.71c8.74,9.81,13.1,24.06,13.1,42.76v89.2
							c0,17.63-4.52,31.12-13.56,40.46c-9.05,9.35-21.99,14.02-38.85,14.02C916.4,649.46,903.53,644.74,894.48,635.32z
							 M940.24,609.11c1.84-2.68,2.76-5.86,2.76-9.54v-97.48c0-5.67-0.65-10-1.95-12.99c-1.3-2.99-3.95-4.48-7.93-4.48
							c-3.99,0-6.59,1.49-7.82,4.48c-1.23,2.99-1.84,7.32-1.84,12.99v97.48c0,3.68,0.88,6.86,2.64,9.54
							c1.76,2.68,4.1,4.02,7.01,4.02C936.02,613.13,938.4,611.79,940.24,609.11z"/>
						<path class="st12" d="M1073.58,647.62v-31.27h-58.62v-30.81l37.24-135.64h61.61v133.57h10.57v32.88h-10.57v31.27H1073.58z
							 M1050.13,583.47h23.45v-99.55L1050.13,583.47z"/>
					</g>
				</g>
			</g>
		</g>
		<g>
			<path class="st2" d="M1378.99,350.3c1.78,1.14,2.73,3.82,1.35,5.41c13.35,27.5,56.23,20.73,56.99,2.73l-26.36,19.48
				c0-0.44,28.56-20.37,28.54-20.82c-0.87-19.5-15.81-35.99-35.99-35.99c-4.09,0-8.14,0.78-11.97,2.2
				c-5.22-15.77-19.29-27.56-37.11-27.56c-17.56,0-34.48,13.2-38.42,30.29c-0.28,0-0.55-0.03-0.84-0.02
				c-2.54,0.34-5.07,0.68-7.61,1.02c-4.85,1.36-9.06,3.81-12.63,7.36c-1.21,1.56-2.41,3.12-3.62,4.68c-2.08-1.36-4.67-2.19-7.8-2.19
				c-12.1,0-16.33,12.23-12.69,20.78c33.73-5.36,67.87-8.21,102.02-8.52C1374.97,349.14,1377.21,349.17,1378.99,350.3z"/>
		</g>
		<polygon class="st8" points="627.63,529.21 627.63,328.92 779.46,328.92 627.63,594.74 		"/>
		<g>
			<g>
				<g>
					<polygon class="st13" points="595.77,860.93 605.5,860.93 763.87,321.18 754.13,321.18 					"/>
					<polygon class="st13" points="513.3,860.93 523.03,860.93 681.4,321.18 671.66,321.18 					"/>
					<polygon class="st13" points="662.64,351.96 754.84,351.96 757.71,342.19 665.5,342.19 					"/>
					<polygon class="st13" points="652.23,387.42 744.44,387.42 747.3,377.64 655.1,377.64 					"/>
					<polygon class="st13" points="641.83,422.88 734.03,422.88 736.9,413.1 644.7,413.1 					"/>
					<polygon class="st13" points="631.42,458.34 723.63,458.34 726.5,448.56 634.29,448.56 					"/>
					<polygon class="st13" points="621.02,493.79 713.23,493.79 716.09,484.02 623.89,484.02 					"/>
					<polygon class="st13" points="610.62,529.25 702.82,529.25 705.69,519.48 613.48,519.48 					"/>
					<polygon class="st13" points="600.21,564.71 692.42,564.71 695.28,554.94 603.08,554.94 					"/>
					<polygon class="st13" points="589.81,600.17 682.01,600.17 684.88,590.4 592.68,590.4 					"/>
					<polygon class="st13" points="579.4,635.63 671.61,635.63 674.48,625.86 582.27,625.86 					"/>
					<polygon class="st13" points="569,671.09 661.21,671.09 664.07,661.32 571.87,661.32 					"/>
					<polygon class="st13" points="558.6,706.55 650.8,706.55 653.67,696.78 561.46,696.78 					"/>
					<polygon class="st13" points="548.19,742.01 640.4,742.01 643.26,732.24 551.06,732.24 					"/>
					<polygon class="st13" points="537.79,777.47 629.99,777.47 632.86,767.7 540.66,767.7 					"/>
					<polygon class="st13" points="527.38,812.93 619.59,812.93 622.46,803.16 530.25,803.16 					"/>
					<polygon class="st13" points="516.98,848.39 609.19,848.39 612.05,838.61 519.85,838.61 					"/>
				</g>
				<path class="st14" d="M566.48,396.17c-20.01,1.31-39.44,7.8-55.48,18.54c-16.04,10.73-28.66,25.68-36.02,42.68
					c3.57,1.15,8.14,3.29,11.71,4.44c13.66-19.25,39.57-30,64.52-25.43c7.57,1.39,16.09,3.86,22.38-0.04
					c4.28-2.65,6.14-7.55,7.11-12.23c1.1-5.27,1.4-10.85-0.49-16C578.35,402.98,572.19,397.56,566.48,396.17z"/>
				<g>
					
						<rect x="463.03" y="385.46" transform="matrix(0.9053 -0.4249 0.4249 0.9053 -149.9083 245.496)" class="st15" width="24.92" height="146.8"/>
					<path class="st16" d="M457,413.65l-4.48,2.1c-1.7,0.8-2.43,2.82-1.63,4.52l38.57,82.17c0.8,1.7,2.82,2.43,4.52,1.63l4.48-2.1
						c1.7-0.8,2.43-2.82,1.63-4.52l-38.57-82.17C460.72,413.58,458.7,412.85,457,413.65z"/>
					<path class="st15" d="M530.53,556.34l-11.99-25.54l-9.33-0.09l-5.9,7.24l11.99,25.54c-10.85,1.22-21.74-4.47-26.64-14.9
						c-6.15-13.1-0.51-28.7,12.58-34.84c13.1-6.15,28.7-0.51,34.84,12.58C540.98,536.76,538.4,548.77,530.53,556.34z"/>
					<path class="st15" d="M419.94,360.33l11.99,25.54l9.33,0.09l5.9-7.24l-11.99-25.54c10.85-1.22,21.74,4.47,26.64,14.9
						c6.15,13.1,0.51,28.7-12.58,34.84c-13.1,6.15-28.7,0.51-34.84-12.58C409.49,379.91,412.07,367.9,419.94,360.33z"/>
				</g>
				<g>
					<g>
						<path class="st17" d="M628.61,602.57c6.5-0.52,12.81-2.33,19.05-4.27c-5.58,17.38-11.17,34.76-16.75,52.14
							c4.68,5.14,11.25,9.41,18.02,11.02c-7.74,0.16-15.86,0.65-23.6,0.81c-2.62-3.54-5.73-7.05-8.35-10.6
							c0.13-3.15-0.05-6.36,0.08-9.51c0.55-13.14,1.91-26.44,3.43-39.72C623.18,602.76,625.92,602.79,628.61,602.57z"/>
						<path class="st18" d="M588.15,481.47c17.06,13.68,35.98,25.51,53.05,39.19c7.35,5.89,15.06,12.28,18,21.23
							c3.21,9.74,0.06,20.31-3.08,30.08c-2.82,8.78-5.64,17.55-8.46,26.33c-6.24,1.94-12.55,3.75-19.05,4.27
							c-2.69,0.22-5.42,0.19-8.12-0.12c1.47-12.77,3.09-25.52,4.29-38.1c-7.05-13.51-19.59-22.84-33.05-30
							c-13.69-7.28-28.17-13.38-40.37-22.95c-12.2-9.57-22.13-23.55-22.27-39.05L588.15,481.47z"/>
					</g>
					<g>
						<path class="st17" d="M604.82,630.31c-3.1,21.43-9.22,41.81-18.72,60.09c6.2,0.62,13.34,3.65,19.11,6.95
							c-9.44,0-21.57-0.28-31.01-0.28c3.24-22.63,4.99-43.61,3.78-64.89C586.89,633.79,596.21,633.14,604.82,630.31z"/>
						<path class="st19" d="M512.32,466.68l69.05,12.46c-5.72,22.66,16.87,41.12,21.31,65.86c5.14,28.67,6.12,57.85,2.14,85.31
							c-8.61,2.82-17.93,3.48-26.84,1.87c-1.14-19.95-4.88-40.15-12.49-62.21C552.91,533.51,512.02,502.92,512.32,466.68z"/>
					</g>
					<g>
						<path class="st20" d="M564.57,425.95c10.26,2.68,20.53,5.21,30.79,7.83c0.24-3.88,0.49-7.77,0.73-11.65
							c0.64-10.24,1.04-21.4-4.94-29.75c-7.9-11.03-24.71-12.55-36.81-6.41c-12.1,6.14-20.22,18.02-26.28,30.15
							c-7.92,15.86-13.26,33-15.74,50.55c23.89,10,54.1,20.42,79.86,17.77c0.3-4.82,0.6-9.63,0.91-14.45
							c0.29-4.61,0.58-9.22,0.87-13.84c0.23-3.72,0.47-7.44,0.7-11.17c-4.93-0.93-9.67-3.03-13.94-5.71
							C574.8,435.55,569.67,430.74,564.57,425.95z"/>
						<path class="st21" d="M564.57,425.95c5.1,4.78,10.23,9.6,16.15,13.33c4.27,2.69,9,4.79,13.94,5.71
							c0.23-3.74,0.47-7.47,0.7-11.21C585.09,431.16,574.83,428.63,564.57,425.95z"/>
					</g>
					<path class="st14" d="M563.79,387.42c8.73-6.5,16.31-14.54,22.3-23.63c1.81-2.75,2.16-6.54,4.49-8.88
						c2.32-2.34,6.36-3.34,8.94-1.28c2.13,1.7,2.55,4.75,2.51,7.48c-0.06,3.95-0.74,7.88-2.01,11.62c-0.66,1.93-1.58,3.94-3.35,4.95
						c-1.6,0.91-3.73,0.78-5.21-0.32c-1.48-1.1-2.21-3.11-1.79-4.9c-1.53,6.06-4.76,14.9-4.76,23.75
						C583.97,402.69,562.99,387.59,563.79,387.42z"/>
					<path class="st21" d="M598.42,357.94c-1.1,1.88-2.42,3.63-3.93,5.21c0.04-0.56-0.35-1.04-0.87-1.25
						c-0.52-0.21-1.13-0.12-1.61,0.18c-0.48,0.29-0.83,0.77-1.05,1.28c-0.2,0.47-0.31,1-0.23,1.51c0.08,0.51,0.37,1,0.81,1.26
						c0.44,0.26,1.05,0.27,1.46-0.04c-0.83,0.98-1.62,1.87-2.45,2.85c-0.53-2.48-2.89-4.44-5.42-4.51c0.96-1.2,1.7-2.44,2.1-3.93
						c0.16-0.61,0.31-1.29,0.83-1.65c0.35-0.24,0.81-0.28,1.23-0.31C592.17,358.33,595.54,358.14,598.42,357.94z"/>
					<g>
						<g>
							<path class="st14" d="M604.41,427.49c0.84-4.14,3.38-7.77,6.47-10.64c0.78-0.73,1.6-1.41,2.45-2.06
								c13.16,5.61,23.45,9.98,32.67,14.17c12.47,5.66,26.28,10.27,40.42,14.56c-3.65,2.71-6.64,5.68-8.89,8.83
								c-22.51-2.89-47.18-5.87-69.74-10.78C604.95,437.39,603.41,432.39,604.41,427.49z"/>
							<path class="st20" d="M573.98,397.82c15.75,6.9,28.52,12.35,39.35,16.97c-0.84,0.65-1.66,1.33-2.45,2.06
								c-3.1,2.87-5.64,6.5-6.47,10.64c-0.99,4.9,0.54,9.9,3.38,14.09c-18.1-3.94-34.84-9.11-48-16.49L573.98,397.82z"/>
						</g>
						<path class="st14" d="M701.29,448.56c-4.97-1.45-14.42-4.91-19.35-6.41c-3.65,2.71-4.85,5.98-4.41,10.21
							c6.33,0.81,11.83,1.82,15.25-2.46C694.51,447.8,699.57,450.66,701.29,448.56z"/>
					</g>
				</g>
			</g>
			<g>
				<g>
					<path class="st17" d="M603.99,357.95c-0.06,0.74-0.13,1.43-0.19,2.01c-5.72-0.12-11.45-0.23-17.17-0.35
						c-0.12-0.55-0.16-1.11-0.14-1.66H603.99z"/>
					<path class="st22" d="M588.17,353.52c1.34-1.7,3.37-2.81,5.52-3.15c2.56-0.4,7-1.04,8.96,0.65c1.52,1.31,1.54,4.4,1.35,6.92
						h-17.5C586.56,356.36,587.17,354.79,588.17,353.52z"/>
				</g>
				<path class="st17" d="M601.13,352.44c-0.53-0.54-1.27-0.85-2.01-0.99c-0.75-0.14-1.51-0.12-2.27-0.1
					c-0.98,0.03-1.97,0.05-2.93,0.23c-0.97,0.17-1.92,0.49-2.72,1.06c-1.32,0.93-2.09,2.43-2.82,3.87
					c3.14-2.72,7.54-3.89,11.59-2.98c0.29,0.06,0.58,0.14,0.87,0.1c0.29-0.04,0.59-0.21,0.67-0.49
					C601.6,352.87,601.42,352.41,601.13,352.44z"/>
			</g>
		</g>
		<g>
			<rect x="620.75" y="847.13" class="st23" width="107.45" height="11.35"/>
			<g>
				<path class="st17" d="M682.35,722.91c-2.64-8.47-13.12-8.47-15.76,0l-5.32,17.11l25.79-1.97L682.35,722.91z"/>
				<polygon class="st17" points="656.1,756.66 652.93,766.85 695.03,763.64 692,753.92 				"/>
				<polygon class="st17" points="627.95,847.13 674.48,847.13 721,847.13 699.96,779.51 647.75,783.49 				"/>
				<polygon class="st24" points="687.07,738.06 661.27,740.02 656.1,756.66 692,753.92 				"/>
				<polygon class="st24" points="647.75,783.49 699.96,779.51 695.03,763.64 652.93,766.85 				"/>
			</g>
		</g>
		<g>
			<polyline class="st25" points="1222.43,816.72 1222.43,813.21 1237.39,813.21 			"/>
			<line class="st26" x1="1279.82" y1="802.38" x2="1286.31" y2="802.38"/>
			<path class="st26" d="M1291.16,754.53"/>
		</g>
		<g>
			<path class="st27" d="M1007.77,318.26h98.39c-2.78-8.31-8.65-15.25-14.39-21.93c-3.8-4.42-7.62-8.86-12.09-12.61
				c-15.35-12.88-38.21-16.13-56.56-8.02c-6.23,2.75-12.18,6.98-15.04,13.14c-2.88,6.2-2.24,13.37-1.55,20.16
				C1006.85,312.1,1007.21,315.21,1007.77,318.26z"/>
			<g>
				<path class="st14" d="M1032.07,287.09c2.21,1.88,4.02,4.29,4.89,7.06c0.87,2.77,0.73,5.9-0.66,8.45c-1.13,2.07-2.99,3.63-4.91,5
					c-2.6,1.85-5.56,3.49-8.75,3.49c-3.68,0-7.1-2.28-9.16-5.32c-2.06-3.04-2.91-6.76-3.16-10.43c-0.07-1.04-0.08-2.13,0.36-3.07
					c0.32-0.69,0.87-1.25,1.4-1.79c1.84-1.86,3.73-3.71,6.01-4.97C1022.33,283.16,1028.39,283.97,1032.07,287.09z"/>
				<path class="st14" d="M1013.26,297.94c-1.29,2.82-1.01,6.08-0.51,9.14c0.34,2.09,0.79,4.2,1.86,6.03
					c1.07,1.83,2.86,3.34,4.96,3.59c3.03,0.36,5.85-2.05,6.99-4.88s1.01-6,0.85-9.05c-0.18-3.51-0.87-9.11-5.18-9.98
					C1019.02,292.14,1014.53,295.14,1013.26,297.94z"/>
			</g>
			<g>
				<path class="st27" d="M1062.19,322.4c3.46,0.36,6.81,1.27,10.08,2.46c0.07-0.49,0.14-0.99,0.21-1.48
					c1.19-9.53,1.28-19.42-1.86-28.49c-0.9-2.59-2.22-5.28-4.67-6.53c-1.15-0.58-2.45-0.8-3.73-0.89c-4-0.28-8.14,0.58-11.44,2.85
					c-3.3,2.27-7.7,5.27-7.22,9.25c1.06,8.68,2.1,17.36,3.12,26.04C1051.16,322.77,1056.84,321.85,1062.19,322.4z"/>
				<path class="st28" d="M1077.38,406.24c1.9-0.24,4.01,0.05,5.35,1.42c1.67,1.71,1.56,4.46,1.04,6.79
					c-0.52,2.33-1.33,4.75-0.71,7.06c0.45,1.67,1.59,3.04,2.45,4.54s1.45,3.36,0.71,4.92c-0.92,1.92-3.43,2.47-5.54,2.2
					c-2.11-0.27-4.15-1.11-6.27-1.04c-2.55,0.08-4.85,1.45-7.13,2.59c-2.28,1.14-4.9,2.11-7.34,1.35c-3.5-1.09-5.2-5.26-8.56-6.71
					c-1.37-0.59-2.91-0.67-4.25-1.32c-2.39-1.16-3.65-3.92-3.76-6.57c-0.11-2.65,0.72-5.24,1.55-7.75c0.79-2.42,1.69-5,3.7-6.56
					c4.03-3.14,10.84-1.64,15.32-0.48c1.76,0.45,3.41,0.84,5.24,0.86C1072.04,407.6,1074.58,406.59,1077.38,406.24z"/>
				<path class="st14" d="M1067.15,407.06c-0.79-1.04-1.84-1.93-3.03-2.44c2.31-17.17,1.78-35.62,3.78-52.79
					c1.05-9.04,3.13-17.94,4.36-26.95c-3.27-1.19-6.62-2.1-10.08-2.46c-5.35-0.56-11.03,0.37-15.51,3.21
					c3.17,26.86,6.19,53.73,9.06,80.62c-1.71,0.54-3.12,2.01-3.53,3.76c-0.24,1.05-0.15,2.14-0.25,3.21
					c-0.1,1.07-0.44,2.21-1.3,2.85c-0.74,0.55-1.71,0.64-2.55,1c-0.84,0.36-1.63,1.29-1.26,2.13c0.2,0.47,0.71,0.75,1.22,0.8
					c0.51,0.05,1.01-0.09,1.49-0.27c2.04-0.75,3.85-2.14,5.09-3.92c0,4.41,0.2,8.71,0.2,13.12c0,0.69,0.16,1.59,0.85,1.7
					c0.69,0.11,1.12-0.71,1.33-1.38c1.22-4.07,2.09-8.25,2.58-12.47c0.35,3.68,0.67,7.24,1.02,10.92c0.04,0.43,0.09,0.88,0.3,1.26
					c0.22,0.38,0.66,0.66,1.08,0.56c0.6-0.15,0.78-0.89,0.84-1.51c0.43-3.92,0.87-7.84,1.3-11.77c-0.18,3.74,0.27,7.51,1.31,11.11
					c0.13,0.44,0.27,0.9,0.6,1.23c0.32,0.33,0.87,0.49,1.25,0.24c0.41-0.27,0.46-0.85,0.47-1.34c0.04-3.8,0.09-7.59,0.13-11.39
					c0.13,3.16,1.33,6.17,3.09,8.81c0.41,0.61,1.36,0.28,1.28-0.45c-0.43-4.31-1.37-8.58-2.79-12.67
					C1068.89,410.12,1068.22,408.46,1067.15,407.06z"/>
			</g>
			<g>
				<path class="st21" d="M1028.1,303.31c0.13,0.26,0.25,0.53,0.38,0.79c0.11,0.23,0.22,0.47,0.24,0.72s-0.08,0.54-0.31,0.66
					c0.2,0.01,0.37,0.18,0.43,0.37c0.06,0.19,0.04,0.4,0.01,0.59c-0.19,1.07-0.8,2.06-1.68,2.7c-0.01-1.62,0.12-3.23,0.11-4.85
					c0-0.28,0-0.57,0.14-0.8C1027.56,303.26,1027.98,303.07,1028.1,303.31z"/>
				<path class="st21" d="M1012.17,302.57c-0.13,0.26-0.25,0.53-0.38,0.79c-0.11,0.23-0.22,0.47-0.24,0.72
					c-0.02,0.26,0.08,0.54,0.31,0.66c-0.2,0.01-0.37,0.18-0.43,0.37c-0.06,0.19-0.04,0.4-0.01,0.59c0.18,1.07,0.71,2.19,1.59,2.83
					c0.01-1.62-0.03-3.36-0.02-4.98c0-0.28,0-0.57-0.14-0.8C1012.71,302.52,1012.29,302.32,1012.17,302.57z"/>
				<path class="st22" d="M1012.52,301.2c0.41-2.53,1.15-5.14,2.92-6.99c2.35-2.47,6.42-3.09,9.4-1.43c2.98,1.66,4.6,5.44,3.74,8.74
					c-0.37,1.41-2.09,1.74-3.54,1.94c-2.16,0.31-4.34,0.62-6.51,0.39C1016.36,303.62,1013.96,302.83,1012.52,301.2z"/>
				<path class="st17" d="M1028.68,303.2c-0.36,0.73-1.04,1.26-1.79,1.58s-1.56,0.45-2.37,0.53c-3.08,0.32-6.23-0.01-9.18-0.95
					c-1.28-0.41-2.62-1.01-3.29-2.18c-0.26-0.45-0.37-1.09,0-1.45c0.23-0.22,0.58-0.27,0.89-0.21c0.31,0.06,0.6,0.21,0.88,0.36
					c4.04,2.05,8.87,2.46,13.2,1.15c0.34-0.1,1.27-0.62,1.61-0.47C1029.13,301.79,1028.85,302.85,1028.68,303.2z"/>
			</g>
		</g>
	</g>
	<g>
		<g>
			<path class="st17" d="M1445.95,669.48c7.58,12.59,12.16,24.33,13.99,35.87c2.24,14.1,0.1,27.93-6,38.94
				c-5.67,10.22-15.02,18.88-27.81,25.75c-13.72,7.37-28.96,11-43.82,11c-18.96,0-37.31-5.89-51.15-17.42
				c-12.3-10.24-20.7-24.01-28.92-38.4l-1.01-1.77c-7.11-12.47-14.47-25.37-24.7-35.08c-11.49-10.91-25.66-16.07-37.9-13.81
				l-1.81-9.8c15.37-2.84,32.77,3.28,46.57,16.38c11.3,10.73,19.03,24.27,26.5,37.37l1.01,1.77c8.05,14.09,15.61,26.5,26.64,35.69
				c21.65,18.03,56.14,20.21,83.88,5.3c11.07-5.95,19.08-13.29,23.81-21.81c5.03-9.08,6.77-20.63,4.88-32.54
				c-1.63-10.26-5.78-20.82-12.68-32.29"/>
			<path class="st17" d="M1431.33,596.88"/>
		</g>
	</g>
	<g>
		<path class="st29" d="M1246.74,661.74l-1.06,9.22c-0.91,7.89-8.04,13.54-15.93,12.63l-13.55-1.56c-1.65-0.19-2.83-1.68-2.64-3.32
			l3.67-31.82c0.19-1.65,1.68-2.83,3.32-2.64l13.55,1.56C1241.99,646.73,1247.65,653.86,1246.74,661.74z"/>
		<path class="st22" d="M1192.72,671.76L1192.72,671.76c-0.19,1.65,0.99,3.13,2.64,3.32l15.41,1.78c1.65,0.19,3.13-0.99,3.32-2.64v0
			c0.19-1.65-0.99-3.13-2.64-3.32l-15.41-1.78C1194.39,668.93,1192.9,670.11,1192.72,671.76z"/>
		<path class="st22" d="M1195.26,649.66L1195.26,649.66c-0.19,1.65,0.99,3.13,2.64,3.32l15.41,1.78c1.65,0.19,3.13-0.99,3.32-2.64v0
			c0.19-1.65-0.99-3.13-2.64-3.32l-15.41-1.78C1196.94,646.83,1195.45,648.01,1195.26,649.66z"/>
	</g>
	<g>
		<g>
			
				<linearGradient id="SVGID_00000011012718804743543330000005117634261842398635_" gradientUnits="userSpaceOnUse" x1="1480.2637" y1="806.3007" x2="1476.2345" y2="690.1239" gradientTransform="matrix(0.7698 0.6383 -0.6383 0.7698 712.8031 -824.3196)">
				<stop  offset="0" style="stop-color:#F6F578"/>
				<stop  offset="1" style="stop-color:#F6D743"/>
			</linearGradient>
			<path style="fill:url(#SVGID_00000011012718804743543330000005117634261842398635_);" d="M1448.7,711.02
				c1.96-3.03,3.66-6.17,5.1-9.39l11.64,5.47l2.98-9.67l2.98-9.67l-12.7-2.04c0.64-3.52,1-7.06,1.1-10.61l12.85,0.61l-0.94-10.07
				l-0.94-10.07l-12.51,2.97c-0.75-3.48-1.77-6.9-3.05-10.25l12.09-4.35l-4.73-8.95l-4.73-8.95l-10.4,7.52
				c-2.01-2.89-4.25-5.66-6.74-8.28l9.5-8.65l-7.79-6.46l-7.79-6.46l-6.74,10.94c-3.03-1.96-6.18-3.66-9.4-5.1l5.46-11.62
				l-9.67-2.98l-9.67-2.98l-2.04,12.69c-3.52-0.63-7.06-1-10.62-1.09l0.61-12.84l-10.07,0.94l-10.07,0.94l2.97,12.51
				c-3.48,0.75-6.9,1.77-10.25,3.05l-4.36-12.1l-8.95,4.73l-8.95,4.73l7.54,10.42c-2.89,2.01-5.66,4.26-8.27,6.74l-8.67-9.52
				l-6.46,7.79l-6.46,7.79l10.97,6.76c-1.96,3.03-3.66,6.17-5.09,9.4l-11.65-5.48l-2.98,9.67l-2.98,9.67l12.72,2.04
				c-0.63,3.51-1,7.06-1.09,10.61l-12.88-0.61l0.94,10.07l0.94,10.07l12.55-2.98c0.75,3.48,1.77,6.9,3.05,10.24l-12.14,4.37
				l4.73,8.95l4.73,8.95l10.45-7.56c2.01,2.89,4.25,5.66,6.74,8.27l-9.55,8.69l7.79,6.46l7.79,6.46l6.77-10.99
				c3.03,1.96,6.17,3.66,9.39,5.1l-5.49,11.67l9.67,2.98l9.67,2.98l2.04-12.74c3.51,0.64,7.06,1,10.61,1.1l-0.61,12.89l10.07-0.94
				l10.07-0.94l-2.98-12.55c3.48-0.75,6.9-1.77,10.24-3.04l4.37,12.13l8.95-4.73l8.95-4.73l-7.55-10.43c2.89-2,5.66-4.25,8.27-6.73
				l8.67,9.53l6.46-7.79l6.46-7.79L1448.7,711.02z M1425.2,724.2l-2.4-3.32l-5.88,3.11l-5.88,3.11l1.38,3.84
				c-3.06,1.18-6.21,2.11-9.4,2.79l-0.94-3.96l-6.62,0.62l-6.62,0.62l-0.19,4.06c-3.26-0.08-6.51-0.41-9.74-1l0.64-4.02l-6.35-1.96
				l-6.35-1.96l-1.73,3.69c-2.96-1.31-5.84-2.87-8.62-4.68l2.13-3.46l-5.12-4.24l-5.12-4.24l-3,2.73c-2.29-2.39-4.35-4.93-6.18-7.59
				l3.3-2.39l-3.11-5.88l-3.11-5.88l-3.83,1.38c-1.18-3.06-2.12-6.21-2.8-9.4l3.96-0.94l-0.62-6.62l-0.62-6.62l-4.07-0.19
				c0.07-3.26,0.41-6.51,1-9.74l4.03,0.65l1.96-6.35l1.96-6.35l-3.71-1.74c1.31-2.96,2.87-5.84,4.67-8.62l3.48,2.14l4.24-5.12
				l4.24-5.12l-2.75-3.03c2.39-2.29,4.93-4.35,7.59-6.19l2.41,3.33l5.88-3.11l5.88-3.11l-1.39-3.86c3.06-1.18,6.21-2.12,9.4-2.8
				l0.95,3.99l6.62-0.62l6.62-0.62l0.19-4.11c3.26,0.07,6.52,0.41,9.74,1l-0.65,4.07l6.35,1.96l6.35,1.96l1.76-3.74
				c2.96,1.31,5.84,2.87,8.62,4.68l-2.16,3.51l5.12,4.24l5.12,4.24l3.05-2.77c2.29,2.39,4.35,4.93,6.18,7.59l-3.35,2.42l3.11,5.88
				l3.11,5.88l3.88-1.4c1.18,3.07,2.11,6.21,2.79,9.4l-4,0.95l0.62,6.62l0.62,6.62l4.1,0.19c-0.08,3.26-0.41,6.52-1.01,9.74
				l-4.06-0.65l-1.96,6.35l-1.96,6.35l3.72,1.75c-1.31,2.96-2.87,5.84-4.68,8.62l-3.48-2.15l-4.24,5.12l-4.24,5.12l2.75,3.02
				C1430.4,720.3,1427.86,722.36,1425.2,724.2z"/>
		</g>
		
			<linearGradient id="SVGID_00000140014514035842407800000003739454605825052800_" gradientUnits="userSpaceOnUse" x1="1479.5255" y1="784.9824" x2="1476.496" y2="697.6281" gradientTransform="matrix(0.7698 0.6383 -0.6383 0.7698 712.8031 -824.3196)">
			<stop  offset="3.300000e-07" style="stop-color:#F6D743"/>
			<stop  offset="1" style="stop-color:#F6F578"/>
		</linearGradient>
		<path style="fill:url(#SVGID_00000140014514035842407800000003739454605825052800_);" d="M1429.62,625.64
			c-26.29-21.8-65.27-18.15-87.06,8.13c-21.8,26.29-18.15,65.27,8.13,87.06c26.29,21.8,65.27,18.15,87.06-8.13
			C1459.55,686.42,1455.9,647.44,1429.62,625.64z M1366.4,701.89c-15.82-13.12-18.01-36.57-4.89-52.39
			c13.12-15.82,36.57-18.01,52.39-4.89c15.82,13.12,18.01,36.57,4.89,52.39C1405.68,712.81,1382.22,715,1366.4,701.89z"/>
	</g>
	<g>
		<g>
			<g>
				<g>
					<g>
						<path class="st32" d="M1352.37,732.31c-5.02-5.52-11.76-9.44-19.02-11.15c-1.45,1.85-2.98,3.64-4.6,5.33
							c-1.76,1.83-3.69,3.61-6.05,4.57c-2.68,1.09-5.71,1.02-8.54,0.41c-5.52-1.19-10.42-4.3-14.96-7.67
							c-3.31-2.45-6.51-5.08-9.93-7.34v14.08c4.38,3.47,8.91,6.74,13.76,9.53c8.43,4.84,18.02,8.12,27.73,7.72
							c4.06-0.17,8.19-1,11.67-3.1c4.58-2.75,7.65-7.39,10.12-12.17C1352.49,732.45,1352.43,732.38,1352.37,732.31z"/>
						<path class="st17" d="M1356.81,720.2c0.36-3.97-0.67-8.24-3.52-11.03c-2.85-2.79-9.84-5.55-11.49-1.92
							c-2.25,4.95-5.1,9.62-8.45,13.91c7.26,1.71,14,5.63,19.02,11.15c0.06,0.07,0.12,0.14,0.18,0.21c0.18-0.34,0.35-0.68,0.52-1.02
							C1354.85,727.93,1356.45,724.18,1356.81,720.2z"/>
					</g>
				</g>
				<path class="st13" d="M1400.85,709.12c-11.44-7.28-24.49-13.29-37.99-12.34c-13.5,0.96-27.07,10.89-28.13,24.41
					c-0.8,10.22,5.29,19.58,11.11,28.03c2.66,3.86,5.33,7.72,7.99,11.58c5.49-3.17,9.25-8.89,12.56-14.32
					c5.41-8.85,13.44-17.07,18.85-25.92c1.87,7.28,3.75,14.66,3.65,22.17c-0.1,7.51-2.43,15.3-7.86,20.49
					c-3.61,3.44-8.35,5.53-13.21,6.64c-2.31,0.53-4.65,0.84-7.01,1.05c6.83,9.9,13.66,19.8,20.49,29.7
					c23.37-10.96,48.49-11.93,63.74-32.78C1433.97,737.12,1415.8,718.63,1400.85,709.12z"/>
				<path class="st33" d="M1353.19,761.16c-0.19,3.39-0.05,6.7-0.24,10.09c2.62-0.05,5.25-0.13,7.86-0.35
					c-2.32-3.37-4.65-6.74-6.97-10.11C1353.62,760.92,1353.41,761.05,1353.19,761.16z"/>
				<path class="st29" d="M1381.03,763.22c5.43-5.19,7.76-12.98,7.86-20.49c0.1-7.51-1.78-14.89-3.65-22.17
					c-5.41,8.85-13.44,17.07-18.85,25.92c-3.32,5.43-7.07,11.15-12.56,14.32c2.32,3.37,4.65,6.74,6.97,10.11
					c2.36-0.2,4.7-0.52,7.01-1.05C1372.68,768.74,1377.42,766.66,1381.03,763.22z"/>
			</g>
			<path class="st14" d="M1335.9,703.28c1.49-1.08,2.26-3.07,1.86-4.87c1.4,5.93,3.08,18.27,4.49,24.18
				c1.21-0.44,11.69,3.68,11.78-14.93c0-0.27,0.29-0.92,0.51-1.66c-4.93-4.9-9.33-10.34-13.07-16.2c-1.77-2.78-2.06-6.57-4.35-8.95
				c-2.29-2.38-6.31-3.43-8.92-1.42c-2.16,1.67-2.62,4.71-2.62,7.44c0,3.95,0.62,7.89,1.83,11.65c0.63,1.94,1.52,3.96,3.27,5
				C1332.27,704.45,1334.41,704.36,1335.9,703.28z"/>
			<path class="st29" d="M1335.86,689.74c-0.17-0.76,0.33-1.58,1.05-1.85c0.73-0.27,1.6,0,2.1,0.6c0.5,0.6,0.62,1.46,0.36,2.2
				c-0.25,0.73-0.85,1.32-1.56,1.63c-0.12-0.14-0.25-0.28-0.37-0.42c1.37,1.08,3.34,1.18,4.8,0.21c0.59-0.39,1.09-0.95,1.23-1.64
				c0.15-0.69-0.14-1.49-0.77-1.8c1.17,0.14,2.3-1.03,2.13-2.2c-0.17-1.17-1.59-1.96-2.67-1.5c0.91-0.68,1.71-1.57,2.05-2.65
				c0.34-1.08,0.16-2.37-0.65-3.17c-0.81-0.8-2.26-0.92-3.07-0.12c0.79-1.57,0.19-3.71-1.3-4.63s-3.67-0.52-4.73,0.89
				c0.29-1.91-1.43-3.85-3.36-3.8s-3.54,2.09-3.16,3.97c-0.19-0.93-1.2-1.55-2.14-1.46c-0.94,0.09-1.76,0.79-2.17,1.64
				c-0.41,0.85-0.47,1.84-0.36,2.78c-0.61-0.84-1.94-0.92-2.78-0.33c-0.85,0.6-1.23,1.7-1.17,2.74c0.07,1.1,0.59,2.16,1.43,2.88
				c-0.69,0.83-0.64,2.19,0.12,2.96c0.76,0.77,2.11,0.85,2.96,0.17c0.04,0.41,0.07,0.82,0.11,1.23c2.57-0.68,4.9-2.25,6.48-4.39
				c-0.26,1.58,0.19,3.26,1.21,4.49C1332.66,689.39,1334.26,689.69,1335.86,689.74z"/>
			<path class="st33" d="M1445.21,765.79c7.32,12.42,5.01,29-3.33,40.75c-8.34,11.75-21.77,19.11-35.68,22.86
				c-13.91,3.75-28.47,4.26-42.87,4.74"/>
			<g>
				<path class="st18" d="M1412.62,832.47c-5.59-0.31-11.16-0.2-16.69,0.85c14.29-2.11,27.65-9.82,35.99-21.62
					c8.34-11.8,11.6-27.05,8.82-41.23c-22.56,7.75-51.36,11.88-61.29,33.57c-7.62,16.63-12.46,34.54-14.26,52.74
					c12.14,3.62,25.25-0.09,36.81-5.26c3.53-1.58,7.02-2.78,10.53-3.77c-0.83-2.39-1.51-4.83-1.67-7.35
					C1410.69,837.67,1411.22,834.79,1412.62,832.47z"/>
				<path class="st34" d="M1445.05,835.62c-10.82-0.35-21.67-2.55-32.43-3.14c-1.4,2.32-1.93,5.19-1.75,7.93
					c0.16,2.52,0.84,4.96,1.67,7.35c7.97-2.25,15.99-3.4,24.57-5.34c0.29,4.67,0.63,3.62,0.92,8.3c-4.07,2.07-8.49,5.45-12.57,7.52
					c5.79,0.08,11.59-0.52,17.38-0.44C1444.7,848.69,1445.95,844.86,1445.05,835.62z"/>
			</g>
			<g>
				<path class="st17" d="M1394.96,845.92c8.77,0.96,17.55,1.92,26.32,2.88c-6.86,2.51-13.45,6.69-19.12,11.3
					c8.9,0.1,17.69-0.41,26.39-2.31c1.39-4.83-0.22-10.15-4.38-12.98c-7.55-5.13-15.94-8.98-24.32-12.81
					C1396.35,835.66,1394.53,840.88,1394.96,845.92z"/>
				<path class="st19" d="M1433.99,811.48c11.66-11.82,14.56-28.04,11.01-44.25c-33.27,8.94-64.78,24.37-92.25,45.16
					c-3.53,2.67-7.07,5.51-9.36,9.29c-2.3,3.78-3.16,8.73-1.09,12.64c2.97,5.63,10.29,6.97,16.62,7.66
					c12.02,1.32,24.04,2.63,36.06,3.95c-0.43-5.04,1.39-10.26,4.89-13.91c-3.85-1.76-7.69-3.51-11.45-5.39
					C1404.67,829.96,1422.33,823.29,1433.99,811.48z"/>
			</g>
		</g>
		<g>
			<g>
				<path class="st14" d="M1359.58,732.99c-0.98,2.72-2.07,5.39-3.32,7.99c-1.35,2.82-2.91,5.63-5.3,7.65
					c-2.71,2.3-6.27,3.38-9.8,3.75c-6.9,0.73-13.81-1.02-20.39-3.2c-6.58-2.18-13.06-4.83-19.9-5.99c-0.9,3.84-2.37,8.24-3.27,12.08
					c11.04,4.54,22.18,9.01,33.88,11.41c11.69,2.41,24.13,2.55,35.31-1.64c4.68-1.75,9.16-4.31,12.42-8.1
					c4.29-4.97,6.08-11.56,7.13-18.07c-0.1-0.06-0.2-0.12-0.3-0.17C1378.07,734.18,1368.71,732.2,1359.58,732.99z"/>
				<path class="st13" d="M1386.58,722.86c-1.1-4.77-3.95-9.35-8.34-11.51c-4.4-2.16-13.61-2.7-14.14,2.17
					c-0.72,6.64-2.26,13.18-4.51,19.46c9.12-0.79,18.49,1.19,26.46,5.7c0.1,0.06,0.2,0.11,0.3,0.17c0.07-0.46,0.15-0.93,0.21-1.39
					C1387.26,732.62,1387.69,727.64,1386.58,722.86z"/>
			</g>
			<path class="st14" d="M1300.97,743.47c-2.41-2.25-4.22-3.67-6.63-5.92c-3.51,0.72-7.12,1.3-10.63,2.02
				c-0.11,3.8-0.19,7.78,0.63,11.5c2.16-0.23,4.28-0.13,6.44-0.36c1.68,2.72,4.51,5.03,7.66,4.49"/>
		</g>
	</g>
</g>
<g id="Layer_5">
	<text transform="matrix(1 0 0 1 1136.6383 473.4465)" class="st35 st36">!</text>
</g>
<g id="text">
</g>
<g id="Layer_4">
	<path class="st10" d="M1419.41,392.69c-0.01,22.42-18.18,40.59-40.6,40.61h-151.69c-17.29,0-31.3-14.01-31.3-31.3
		c0-14.72,10.26-27.46,24.65-30.59c1.25-18.96,16.98-33.71,35.98-33.73c3.71,0,7.39,0.59,10.92,1.74
		c14.45-27.95,48.83-38.9,76.78-24.45c14.77,7.63,25.46,21.34,29.28,37.51C1398.11,349.09,1419.41,368.55,1419.41,392.69
		L1419.41,392.69z"/>
</g>
<g id="Layer_6">
	<g>
		<circle class="st37" cx="734.07" cy="261.96" r="60.41"/>
		
			<ellipse transform="matrix(0.8975 -0.441 0.441 0.8975 -51.092 364.9936)" class="st38" cx="759.68" cy="292.41" rx="146.37" ry="42.83"/>
		
			<ellipse transform="matrix(0.8975 -0.441 0.441 0.8975 -56.6892 369.9174)" class="st10" cx="767.47" cy="306.92" rx="58.36" ry="17.08"/>
		
			<linearGradient id="SVGID_00000119839670974657744200000002127245002387730854_" gradientUnits="userSpaceOnUse" x1="1571.9458" y1="757.0849" x2="1384.6058" y2="535.2249" gradientTransform="matrix(-1 0 0 -1 2308.0754 1082)">
			<stop  offset="0" style="stop-color:#F9AE2B"/>
			<stop  offset="1" style="stop-color:#FFFFFF;stop-opacity:0"/>
		</linearGradient>
		<polygon style="fill:url(#SVGID_00000119839670974657744200000002127245002387730854_);" points="716.35,336.58 820.04,285.63 
			1006.73,511.48 776.58,511.48 		"/>
	</g>
	<path class="st40" d="M816.7,279.21c0.23-1.23,0.08-2.5-0.45-3.63c-4.16-8.46-30.98-3.8-59.91,10.41s-49.01,32.6-44.85,41.07
		c0.58,1.11,1.49,2.01,2.6,2.58c1.48-9.39,20.01-25,45.3-37.43C784.68,279.77,808.36,274.64,816.7,279.21z"/>
</g>
</svg>
